<svg xmlns="http://www.w3.org/2000/svg" xmlns:xlink="http://www.w3.org/1999/xlink" version="1.1" width="1252" height="620"><defs/><g><g transform="translate(-254,-70) scale(1,1)"><rect fill="#ffffff" stroke="none" x="264" y="80" width="1232" height="600"/></g><g transform="translate(-254,-70) scale(1,1)"><path fill="none" stroke="#000000" d="M 264 80 L 1496 80 L 1496 680 L 264 680 L 264 80 Z Z" stroke-miterlimit="10"/></g><g transform="translate(-254,-70) scale(1,1)"><rect fill="#C0C0C0" stroke="none" x="303" y="111" width="64" height="15" opacity="0.2"/></g><g transform="translate(-254,-70) scale(1,1)"><rect fill="#C0C0C0" stroke="none" x="303" y="125" width="160" height="530" opacity="0.2"/></g><g transform="translate(-254,-70) scale(1,1)"><rect fill="#d8f2ff" stroke="none" x="296" y="119" width="160" height="529"/></g><g transform="translate(-254,-70) scale(1,1)"><path fill="none" stroke="#000000" d="M 296 119 L 456 119 L 456 648 L 296 648 L 296 119 Z Z" stroke-miterlimit="10"/></g><g transform="translate(-254,-70) scale(1,1)"><rect fill="#d8f2ff" stroke="none" x="296" y="104" width="64" height="15"/></g><g transform="translate(-254,-70) scale(1,1)"><path fill="none" stroke="#000000" d="M 296 104 L 360 104 L 360 119 L 296 119 L 296 104 Z Z" stroke-miterlimit="10"/></g><g transform="translate(-254,-70) scale(1,1)"><rect fill="#d8f2ff" stroke="none" x="296" y="118" width="160" height="530"/></g><g transform="translate(-254,-70) scale(1,1)"><path fill="none" stroke="#000000" d="M 296 118 L 456 118 L 456 648 L 296 648 L 296 118 Z Z" stroke-miterlimit="10"/></g><g transform="translate(-254,-70) scale(1,1)"><g><path fill="none" stroke="none"/><text fill="#000000" stroke="none" font-family="Arial" font-size="13px" font-style="normal" font-weight="bold" text-decoration="none" x="359.023193359375" y="137">client</text></g></g><g transform="translate(-254,-70) scale(1,1)"><rect fill="#C0C0C0" stroke="none" x="519" y="111" width="380.79999999999995" height="15" opacity="0.2"/></g><g transform="translate(-254,-70) scale(1,1)"><rect fill="#C0C0C0" stroke="none" x="519" y="125" width="952" height="530" opacity="0.2"/></g><g transform="translate(-254,-70) scale(1,1)"><rect fill="#ffd8eb" stroke="none" x="512" y="119" width="952" height="529"/></g><g transform="translate(-254,-70) scale(1,1)"><path fill="none" stroke="#000000" d="M 512 119 L 1464 119 L 1464 648 L 512 648 L 512 119 Z Z" stroke-miterlimit="10"/></g><g transform="translate(-254,-70) scale(1,1)"><rect fill="#ffd8eb" stroke="none" x="512" y="104" width="380.79999999999995" height="15"/></g><g transform="translate(-254,-70) scale(1,1)"><path fill="none" stroke="#000000" d="M 512 104 L 892.8 104 L 892.8 119 L 512 119 L 512 104 Z Z" stroke-miterlimit="10"/></g><g transform="translate(-254,-70) scale(1,1)"><rect fill="#ffd8eb" stroke="none" x="512" y="118" width="952" height="530"/></g><g transform="translate(-254,-70) scale(1,1)"><path fill="none" stroke="#000000" d="M 512 118 L 1464 118 L 1464 648 L 512 648 L 512 118 Z Z" stroke-miterlimit="10"/></g><g transform="translate(-254,-70) scale(1,1)"><g><path fill="none" stroke="none"/><text fill="#000000" stroke="none" font-family="Arial" font-size="13px" font-style="normal" font-weight="bold" text-decoration="none" x="968.48095703125" y="135.5">server</text></g></g><g transform="translate(-254,-70) scale(1,1)"><rect fill="#C0C0C0" stroke="none" x="543" y="159" width="86.39999999999998" height="15" opacity="0.2"/></g><g transform="translate(-254,-70) scale(1,1)"><rect fill="#C0C0C0" stroke="none" x="543" y="173" width="216" height="362" opacity="0.2"/></g><g transform="translate(-254,-70) scale(1,1)"><rect fill="#a3e0ff" stroke="none" x="536" y="167" width="216" height="361"/></g><g transform="translate(-254,-70) scale(1,1)"><path fill="none" stroke="#000000" d="M 536 167 L 752 167 L 752 528 L 536 528 L 536 167 Z Z" stroke-miterlimit="10"/></g><g transform="translate(-254,-70) scale(1,1)"><rect fill="#a3e0ff" stroke="none" x="536" y="152" width="86.39999999999998" height="15"/></g><g transform="translate(-254,-70) scale(1,1)"><path fill="none" stroke="#000000" d="M 536 152 L 622.4 152 L 622.4 167 L 536 167 L 536 152 Z Z" stroke-miterlimit="10"/></g><g transform="translate(-254,-70) scale(1,1)"><rect fill="#a3e0ff" stroke="none" x="536" y="166" width="216" height="362"/></g><g transform="translate(-254,-70) scale(1,1)"><path fill="none" stroke="#000000" d="M 536 166 L 752 166 L 752 528 L 536 528 L 536 166 Z Z" stroke-miterlimit="10"/></g><g transform="translate(-254,-70) scale(1,1)"><g><path fill="none" stroke="none"/><text fill="#000000" stroke="none" font-family="Arial" font-size="13px" font-style="normal" font-weight="bold" text-decoration="none" x="598.484130859375" y="185">restcontrollers</text></g></g><g transform="translate(-254,-70) scale(1,1)"><rect fill="#C0C0C0" stroke="none" x="567" y="207" width="167.18994140625" height="44" opacity="0.2"/></g><g transform="translate(-254,-70) scale(1,1)"><rect fill="#ffd8eb" stroke="none" x="560" y="200" width="167.18994140625" height="44"/></g><g transform="translate(-254,-70) scale(1,1)"><path fill="none" stroke="#000000" d="M 560 200 L 727.18994140625 200 L 727.18994140625 244 L 560 244 L 560 200 Z Z" stroke-miterlimit="10"/></g><g transform="translate(-254,-70) scale(1,1)"><path fill="none" stroke="#000000" d="M 560 225 L 727.18994140625 225" stroke-miterlimit="10"/></g><g transform="translate(-254,-70) scale(1,1)"><path fill="none" stroke="#000000" d="M 560 235 L 727.18994140625 235" stroke-miterlimit="10"/></g><g transform="translate(-254,-70) scale(1,1)"><g><path fill="none" stroke="none"/><text fill="#000000" stroke="none" font-family="Arial" font-size="13px" font-style="normal" font-weight="bold" text-decoration="none" x="564.5" y="218">DashboardRestController</text></g></g><g transform="translate(-254,-70) scale(1,1)"><rect fill="#C0C0C0" stroke="none" x="584" y="295" width="132.27783203125" height="44" opacity="0.2"/></g><g transform="translate(-254,-70) scale(1,1)"><rect fill="#ffd8eb" stroke="none" x="577" y="288" width="132.27783203125" height="44"/></g><g transform="translate(-254,-70) scale(1,1)"><path fill="none" stroke="#000000" d="M 577 288 L 709.27783203125 288 L 709.27783203125 332 L 577 332 L 577 288 Z Z" stroke-miterlimit="10"/></g><g transform="translate(-254,-70) scale(1,1)"><path fill="none" stroke="#000000" d="M 577 313 L 709.27783203125 313" stroke-miterlimit="10"/></g><g transform="translate(-254,-70) scale(1,1)"><path fill="none" stroke="#000000" d="M 577 323 L 709.27783203125 323" stroke-miterlimit="10"/></g><g transform="translate(-254,-70) scale(1,1)"><g><path fill="none" stroke="none"/><text fill="#000000" stroke="none" font-family="Arial" font-size="13px" font-style="normal" font-weight="bold" text-decoration="none" x="581.5" y="306">TableRestController</text></g></g><g transform="translate(-254,-70) scale(1,1)"><rect fill="#C0C0C0" stroke="none" x="586" y="383" width="128.9072265625" height="44" opacity="0.2"/></g><g transform="translate(-254,-70) scale(1,1)"><rect fill="#ffd8eb" stroke="none" x="579" y="376" width="128.9072265625" height="44"/></g><g transform="translate(-254,-70) scale(1,1)"><path fill="none" stroke="#000000" d="M 579 376 L 707.9072265625 376 L 707.9072265625 420 L 579 420 L 579 376 Z Z" stroke-miterlimit="10"/></g><g transform="translate(-254,-70) scale(1,1)"><path fill="none" stroke="#000000" d="M 579 401 L 707.9072265625 401" stroke-miterlimit="10"/></g><g transform="translate(-254,-70) scale(1,1)"><path fill="none" stroke="#000000" d="M 579 411 L 707.9072265625 411" stroke-miterlimit="10"/></g><g transform="translate(-254,-70) scale(1,1)"><g><path fill="none" stroke="none"/><text fill="#000000" stroke="none" font-family="Arial" font-size="13px" font-style="normal" font-weight="bold" text-decoration="none" x="583.5" y="394">CardRestController</text></g></g><g transform="translate(-254,-70) scale(1,1)"><rect fill="#C0C0C0" stroke="none" x="590" y="463" width="121.43603515625" height="44" opacity="0.2"/></g><g transform="translate(-254,-70) scale(1,1)"><rect fill="#ffd8eb" stroke="none" x="583" y="456" width="121.43603515625" height="44"/></g><g transform="translate(-254,-70) scale(1,1)"><path fill="none" stroke="#000000" d="M 583 456 L 704.43603515625 456 L 704.43603515625 500 L 583 500 L 583 456 Z Z" stroke-miterlimit="10"/></g><g transform="translate(-254,-70) scale(1,1)"><path fill="none" stroke="#000000" d="M 583 481 L 704.43603515625 481" stroke-miterlimit="10"/></g><g transform="translate(-254,-70) scale(1,1)"><path fill="none" stroke="#000000" d="M 583 491 L 704.43603515625 491" stroke-miterlimit="10"/></g><g transform="translate(-254,-70) scale(1,1)"><g><path fill="none" stroke="none"/><text fill="#000000" stroke="none" font-family="Arial" font-size="13px" font-style="normal" font-weight="bold" text-decoration="none" x="587.5" y="474">TagRestController</text></g></g><g transform="translate(-254,-70) scale(1,1)"><rect fill="#C0C0C0" stroke="none" x="823" y="159" width="70.39999999999998" height="15" opacity="0.2"/></g><g transform="translate(-254,-70) scale(1,1)"><rect fill="#C0C0C0" stroke="none" x="823" y="173" width="176" height="362" opacity="0.2"/></g><g transform="translate(-254,-70) scale(1,1)"><rect fill="#a3e0ff" stroke="none" x="816" y="167" width="176" height="361"/></g><g transform="translate(-254,-70) scale(1,1)"><path fill="none" stroke="#000000" d="M 816 167 L 992 167 L 992 528 L 816 528 L 816 167 Z Z" stroke-miterlimit="10"/></g><g transform="translate(-254,-70) scale(1,1)"><rect fill="#a3e0ff" stroke="none" x="816" y="152" width="70.39999999999998" height="15"/></g><g transform="translate(-254,-70) scale(1,1)"><path fill="none" stroke="#000000" d="M 816 152 L 886.4 152 L 886.4 167 L 816 167 L 816 152 Z Z" stroke-miterlimit="10"/></g><g transform="translate(-254,-70) scale(1,1)"><rect fill="#a3e0ff" stroke="none" x="816" y="166" width="176" height="362"/></g><g transform="translate(-254,-70) scale(1,1)"><path fill="none" stroke="#000000" d="M 816 166 L 992 166 L 992 528 L 816 528 L 816 166 Z Z" stroke-miterlimit="10"/></g><g transform="translate(-254,-70) scale(1,1)"><g><path fill="none" stroke="none"/><text fill="#000000" stroke="none" font-family="Arial" font-size="13px" font-style="normal" font-weight="bold" text-decoration="none" x="877.974609375" y="185">services</text></g></g><g transform="translate(-254,-70) scale(1,1)"><rect fill="#C0C0C0" stroke="none" x="847" y="207" width="123.16259765625" height="44" opacity="0.2"/></g><g transform="translate(-254,-70) scale(1,1)"><rect fill="#ffd8eb" stroke="none" x="840" y="200" width="123.16259765625" height="44"/></g><g transform="translate(-254,-70) scale(1,1)"><path fill="none" stroke="#000000" d="M 840 200 L 963.16259765625 200 L 963.16259765625 244 L 840 244 L 840 200 Z Z" stroke-miterlimit="10"/></g><g transform="translate(-254,-70) scale(1,1)"><path fill="none" stroke="#000000" d="M 840 225 L 963.16259765625 225" stroke-miterlimit="10"/></g><g transform="translate(-254,-70) scale(1,1)"><path fill="none" stroke="#000000" d="M 840 235 L 963.16259765625 235" stroke-miterlimit="10"/></g><g transform="translate(-254,-70) scale(1,1)"><g><path fill="none" stroke="none"/><text fill="#000000" stroke="none" font-family="Arial" font-size="13px" font-style="normal" font-weight="bold" text-decoration="none" x="844.5" y="218">DashboardService</text></g></g><g transform="translate(-254,-70) scale(1,1)"><rect fill="#C0C0C0" stroke="none" x="864" y="295" width="88.25048828125" height="44" opacity="0.2"/></g><g transform="translate(-254,-70) scale(1,1)"><rect fill="#ffd8eb" stroke="none" x="857" y="288" width="88.25048828125" height="44"/></g><g transform="translate(-254,-70) scale(1,1)"><path fill="none" stroke="#000000" d="M 857 288 L 945.25048828125 288 L 945.25048828125 332 L 857 332 L 857 288 Z Z" stroke-miterlimit="10"/></g><g transform="translate(-254,-70) scale(1,1)"><path fill="none" stroke="#000000" d="M 857 313 L 945.25048828125 313" stroke-miterlimit="10"/></g><g transform="translate(-254,-70) scale(1,1)"><path fill="none" stroke="#000000" d="M 857 323 L 945.25048828125 323" stroke-miterlimit="10"/></g><g transform="translate(-254,-70) scale(1,1)"><g><path fill="none" stroke="none"/><text fill="#000000" stroke="none" font-family="Arial" font-size="13px" font-style="normal" font-weight="bold" text-decoration="none" x="861.5" y="306">TableService</text></g></g><g transform="translate(-254,-70) scale(1,1)"><rect fill="#C0C0C0" stroke="none" x="866" y="383" width="84.8798828125" height="44" opacity="0.2"/></g><g transform="translate(-254,-70) scale(1,1)"><rect fill="#ffd8eb" stroke="none" x="859" y="376" width="84.8798828125" height="44"/></g><g transform="translate(-254,-70) scale(1,1)"><path fill="none" stroke="#000000" d="M 859 376 L 943.8798828125 376 L 943.8798828125 420 L 859 420 L 859 376 Z Z" stroke-miterlimit="10"/></g><g transform="translate(-254,-70) scale(1,1)"><path fill="none" stroke="#000000" d="M 859 401 L 943.8798828125 401" stroke-miterlimit="10"/></g><g transform="translate(-254,-70) scale(1,1)"><path fill="none" stroke="#000000" d="M 859 411 L 943.8798828125 411" stroke-miterlimit="10"/></g><g transform="translate(-254,-70) scale(1,1)"><g><path fill="none" stroke="none"/><text fill="#000000" stroke="none" font-family="Arial" font-size="13px" font-style="normal" font-weight="bold" text-decoration="none" x="863.5" y="394">CardService</text></g></g><g transform="translate(-254,-70) scale(1,1)"><rect fill="#C0C0C0" stroke="none" x="870" y="463" width="77.40869140625" height="44" opacity="0.2"/></g><g transform="translate(-254,-70) scale(1,1)"><rect fill="#ffd8eb" stroke="none" x="863" y="456" width="77.40869140625" height="44"/></g><g transform="translate(-254,-70) scale(1,1)"><path fill="none" stroke="#000000" d="M 863 456 L 940.40869140625 456 L 940.40869140625 500 L 863 500 L 863 456 Z Z" stroke-miterlimit="10"/></g><g transform="translate(-254,-70) scale(1,1)"><path fill="none" stroke="#000000" d="M 863 481 L 940.40869140625 481" stroke-miterlimit="10"/></g><g transform="translate(-254,-70) scale(1,1)"><path fill="none" stroke="#000000" d="M 863 491 L 940.40869140625 491" stroke-miterlimit="10"/></g><g transform="translate(-254,-70) scale(1,1)"><g><path fill="none" stroke="none"/><text fill="#000000" stroke="none" font-family="Arial" font-size="13px" font-style="normal" font-weight="bold" text-decoration="none" x="867.5" y="474">TagService</text></g></g><g transform="translate(-254,-70) scale(1,1)"><rect fill="#C0C0C0" stroke="none" x="1063" y="159" width="76.79999999999995" height="15" opacity="0.2"/></g><g transform="translate(-254,-70) scale(1,1)"><rect fill="#C0C0C0" stroke="none" x="1063" y="173" width="192" height="362" opacity="0.2"/></g><g transform="translate(-254,-70) scale(1,1)"><rect fill="#a3e0ff" stroke="none" x="1056" y="167" width="192" height="361"/></g><g transform="translate(-254,-70) scale(1,1)"><path fill="none" stroke="#000000" d="M 1056 167 L 1248 167 L 1248 528 L 1056 528 L 1056 167 Z Z" stroke-miterlimit="10"/></g><g transform="translate(-254,-70) scale(1,1)"><rect fill="#a3e0ff" stroke="none" x="1056" y="152" width="76.79999999999995" height="15"/></g><g transform="translate(-254,-70) scale(1,1)"><path fill="none" stroke="#000000" d="M 1056 152 L 1132.8 152 L 1132.8 167 L 1056 167 L 1056 152 Z Z" stroke-miterlimit="10"/></g><g transform="translate(-254,-70) scale(1,1)"><rect fill="#a3e0ff" stroke="none" x="1056" y="166" width="192" height="362"/></g><g transform="translate(-254,-70) scale(1,1)"><path fill="none" stroke="#000000" d="M 1056 166 L 1248 166 L 1248 528 L 1056 528 L 1056 166 Z Z" stroke-miterlimit="10"/></g><g transform="translate(-254,-70) scale(1,1)"><g><path fill="none" stroke="none"/><text fill="#000000" stroke="none" font-family="Arial" font-size="13px" font-style="normal" font-weight="bold" text-decoration="none" x="1114.793212890625" y="185">repositories</text></g></g><g transform="translate(-254,-70) scale(1,1)"><rect fill="#C0C0C0" stroke="none" x="1086" y="207" width="144.8017578125" height="44" opacity="0.2"/></g><g transform="translate(-254,-70) scale(1,1)"><rect fill="#ffd8eb" stroke="none" x="1079" y="200" width="144.8017578125" height="44"/></g><g transform="translate(-254,-70) scale(1,1)"><path fill="none" stroke="#000000" d="M 1079 200 L 1223.8017578125 200 L 1223.8017578125 244 L 1079 244 L 1079 200 Z Z" stroke-miterlimit="10"/></g><g transform="translate(-254,-70) scale(1,1)"><path fill="none" stroke="#000000" d="M 1079 225 L 1223.8017578125 225" stroke-miterlimit="10"/></g><g transform="translate(-254,-70) scale(1,1)"><path fill="none" stroke="#000000" d="M 1079 235 L 1223.8017578125 235" stroke-miterlimit="10"/></g><g transform="translate(-254,-70) scale(1,1)"><g><path fill="none" stroke="none"/><text fill="#000000" stroke="none" font-family="Arial" font-size="13px" font-style="normal" font-weight="bold" text-decoration="none" x="1083.5" y="218">DashboardRepository</text></g></g><g transform="translate(-254,-70) scale(1,1)"><rect fill="#C0C0C0" stroke="none" x="1104" y="295" width="109.8896484375" height="44" opacity="0.2"/></g><g transform="translate(-254,-70) scale(1,1)"><rect fill="#ffd8eb" stroke="none" x="1097" y="288" width="109.8896484375" height="44"/></g><g transform="translate(-254,-70) scale(1,1)"><path fill="none" stroke="#000000" d="M 1097 288 L 1206.8896484375 288 L 1206.8896484375 332 L 1097 332 L 1097 288 Z Z" stroke-miterlimit="10"/></g><g transform="translate(-254,-70) scale(1,1)"><path fill="none" stroke="#000000" d="M 1097 313 L 1206.8896484375 313" stroke-miterlimit="10"/></g><g transform="translate(-254,-70) scale(1,1)"><path fill="none" stroke="#000000" d="M 1097 323 L 1206.8896484375 323" stroke-miterlimit="10"/></g><g transform="translate(-254,-70) scale(1,1)"><g><path fill="none" stroke="none"/><text fill="#000000" stroke="none" font-family="Arial" font-size="13px" font-style="normal" font-weight="bold" text-decoration="none" x="1101.5" y="306">TableRepository</text></g></g><g transform="translate(-254,-70) scale(1,1)"><rect fill="#C0C0C0" stroke="none" x="1105" y="383" width="106.51904296875" height="44" opacity="0.2"/></g><g transform="translate(-254,-70) scale(1,1)"><rect fill="#ffd8eb" stroke="none" x="1098" y="376" width="106.51904296875" height="44"/></g><g transform="translate(-254,-70) scale(1,1)"><path fill="none" stroke="#000000" d="M 1098 376 L 1204.51904296875 376 L 1204.51904296875 420 L 1098 420 L 1098 376 Z Z" stroke-miterlimit="10"/></g><g transform="translate(-254,-70) scale(1,1)"><path fill="none" stroke="#000000" d="M 1098 401 L 1204.51904296875 401" stroke-miterlimit="10"/></g><g transform="translate(-254,-70) scale(1,1)"><path fill="none" stroke="#000000" d="M 1098 411 L 1204.51904296875 411" stroke-miterlimit="10"/></g><g transform="translate(-254,-70) scale(1,1)"><g><path fill="none" stroke="none"/><text fill="#000000" stroke="none" font-family="Arial" font-size="13px" font-style="normal" font-weight="bold" text-decoration="none" x="1102.5" y="394">CardRepository</text></g></g><g transform="translate(-254,-70) scale(1,1)"><rect fill="#C0C0C0" stroke="none" x="1109" y="463" width="99.0478515625" height="44" opacity="0.2"/></g><g transform="translate(-254,-70) scale(1,1)"><rect fill="#ffd8eb" stroke="none" x="1102" y="456" width="99.0478515625" height="44"/></g><g transform="translate(-254,-70) scale(1,1)"><path fill="none" stroke="#000000" d="M 1102 456 L 1201.0478515625 456 L 1201.0478515625 500 L 1102 500 L 1102 456 Z Z" stroke-miterlimit="10"/></g><g transform="translate(-254,-70) scale(1,1)"><path fill="none" stroke="#000000" d="M 1102 481 L 1201.0478515625 481" stroke-miterlimit="10"/></g><g transform="translate(-254,-70) scale(1,1)"><path fill="none" stroke="#000000" d="M 1102 491 L 1201.0478515625 491" stroke-miterlimit="10"/></g><g transform="translate(-254,-70) scale(1,1)"><g><path fill="none" stroke="none"/><text fill="#000000" stroke="none" font-family="Arial" font-size="13px" font-style="normal" font-weight="bold" text-decoration="none" x="1106.5" y="474">TagRepository</text></g></g><g transform="translate(-254,-70) scale(1,1)"><rect fill="#C0C0C0" stroke="none" x="863" y="567" width="35.200000000000045" height="15" opacity="0.2"/></g><g transform="translate(-254,-70) scale(1,1)"><rect fill="#C0C0C0" stroke="none" x="863" y="581" width="88" height="50" opacity="0.2"/></g><g transform="translate(-254,-70) scale(1,1)"><rect fill="#a3e0ff" stroke="none" x="856" y="575" width="88" height="49"/></g><g transform="translate(-254,-70) scale(1,1)"><path fill="none" stroke="#000000" d="M 856 575 L 944 575 L 944 624 L 856 624 L 856 575 Z Z" stroke-miterlimit="10"/></g><g transform="translate(-254,-70) scale(1,1)"><rect fill="#a3e0ff" stroke="none" x="856" y="560" width="35.200000000000045" height="15"/></g><g transform="translate(-254,-70) scale(1,1)"><path fill="none" stroke="#000000" d="M 856 560 L 891.2 560 L 891.2 575 L 856 575 L 856 560 Z Z" stroke-miterlimit="10"/></g><g transform="translate(-254,-70) scale(1,1)"><rect fill="#a3e0ff" stroke="none" x="856" y="574" width="88" height="50"/></g><g transform="translate(-254,-70) scale(1,1)"><path fill="none" stroke="#000000" d="M 856 574 L 944 574 L 944 624 L 856 624 L 856 574 Z Z" stroke-miterlimit="10"/></g><g transform="translate(-254,-70) scale(1,1)"><g><path fill="none" stroke="none"/><text fill="#000000" stroke="none" font-family="Arial" font-size="13px" font-style="normal" font-weight="bold" text-decoration="none" x="877.24365234375" y="593">models</text></g></g><g transform="translate(-254,-70) scale(1,1)"><rect fill="#C0C0C0" stroke="none" x="663" y="567" width="35.200000000000045" height="15" opacity="0.2"/></g><g transform="translate(-254,-70) scale(1,1)"><rect fill="#C0C0C0" stroke="none" x="663" y="581" width="88" height="50" opacity="0.2"/></g><g transform="translate(-254,-70) scale(1,1)"><rect fill="#a3e0ff" stroke="none" x="656" y="575" width="88" height="49"/></g><g transform="translate(-254,-70) scale(1,1)"><path fill="none" stroke="#000000" d="M 656 575 L 744 575 L 744 624 L 656 624 L 656 575 Z Z" stroke-miterlimit="10"/></g><g transform="translate(-254,-70) scale(1,1)"><rect fill="#a3e0ff" stroke="none" x="656" y="560" width="35.200000000000045" height="15"/></g><g transform="translate(-254,-70) scale(1,1)"><path fill="none" stroke="#000000" d="M 656 560 L 691.2 560 L 691.2 575 L 656 575 L 656 560 Z Z" stroke-miterlimit="10"/></g><g transform="translate(-254,-70) scale(1,1)"><rect fill="#a3e0ff" stroke="none" x="656" y="574" width="88" height="50"/></g><g transform="translate(-254,-70) scale(1,1)"><path fill="none" stroke="#000000" d="M 656 574 L 744 574 L 744 624 L 656 624 L 656 574 Z Z" stroke-miterlimit="10"/></g><g transform="translate(-254,-70) scale(1,1)"><g><path fill="none" stroke="none"/><text fill="#000000" stroke="none" font-family="Arial" font-size="13px" font-style="normal" font-weight="bold" text-decoration="none" x="686.279541015625" y="593">dtos</text></g></g><g transform="translate(-254,-70) scale(1,1)"><rect fill="#C0C0C0" stroke="none" x="551" y="567" width="35.200000000000045" height="15" opacity="0.2"/></g><g transform="translate(-254,-70) scale(1,1)"><rect fill="#C0C0C0" stroke="none" x="551" y="581" width="88" height="50" opacity="0.2"/></g><g transform="translate(-254,-70) scale(1,1)"><rect fill="#a3e0ff" stroke="none" x="544" y="575" width="88" height="49"/></g><g transform="translate(-254,-70) scale(1,1)"><path fill="none" stroke="#000000" d="M 544 575 L 632 575 L 632 624 L 544 624 L 544 575 Z Z" stroke-miterlimit="10"/></g><g transform="translate(-254,-70) scale(1,1)"><rect fill="#a3e0ff" stroke="none" x="544" y="560" width="35.200000000000045" height="15"/></g><g transform="translate(-254,-70) scale(1,1)"><path fill="none" stroke="#000000" d="M 544 560 L 579.2 560 L 579.2 575 L 544 575 L 544 560 Z Z" stroke-miterlimit="10"/></g><g transform="translate(-254,-70) scale(1,1)"><rect fill="#a3e0ff" stroke="none" x="544" y="574" width="88" height="50"/></g><g transform="translate(-254,-70) scale(1,1)"><path fill="none" stroke="#000000" d="M 544 574 L 632 574 L 632 624 L 544 624 L 544 574 Z Z" stroke-miterlimit="10"/></g><g transform="translate(-254,-70) scale(1,1)"><g><path fill="none" stroke="none"/><text fill="#000000" stroke="none" font-family="Arial" font-size="13px" font-style="normal" font-weight="bold" text-decoration="none" x="568.503173828125" y="593">config</text></g></g><g transform="translate(-254,-70) scale(1,1)"><rect fill="#C0C0C0" stroke="none" x="1329" y="335" width="110" height="56" opacity="0.2"/></g><g transform="translate(-254,-70) scale(1,1)"><rect fill="#a3e0ff" stroke="none" x="1322" y="328" width="110" height="56"/></g><g transform="translate(-254,-70) scale(1,1)"><path fill="none" stroke="#000000" d="M 1322 328 L 1432 328 L 1432 384 L 1322 384 L 1322 328 Z Z" stroke-miterlimit="10"/></g><g transform="translate(-254,-70) scale(1,1)"><rect fill="#a3e0ff" stroke="none" x="1312" y="335" width="20" height="10"/></g><g transform="translate(-254,-70) scale(1,1)"><path fill="none" stroke="#000000" d="M 1312 335 L 1332 335 L 1332 345 L 1312 345 L 1312 335 Z Z" stroke-miterlimit="10"/></g><g transform="translate(-254,-70) scale(1,1)"><rect fill="#a3e0ff" stroke="none" x="1312" y="355" width="20" height="10"/></g><g transform="translate(-254,-70) scale(1,1)"><path fill="none" stroke="#000000" d="M 1312 355 L 1332 355 L 1332 365 L 1312 365 L 1312 355 Z Z" stroke-miterlimit="10"/></g><g transform="translate(-254,-70) scale(1,1)"><g><path fill="none" stroke="none"/><text fill="#000000" stroke="none" font-family="Arial" font-size="13px" font-style="normal" font-weight="bold" text-decoration="none" x="1344.437744140625" y="346">PostgreSQL</text><path fill="none" stroke="#000000" d="M 1419.562255859375 347.5 L 1344.437744140625 347.5" stroke-miterlimit="10"/></g></g><g transform="translate(-254,-70) scale(1,1)"><path fill="none" stroke="#000000" d="M 752 512 L 784 512 L 784 592 L 856 592" stroke-miterlimit="10" stroke-dasharray="3"/></g><g transform="translate(-254,-70) scale(1,1)"><path fill="none" stroke="#000000" d="M 845.8373251423759 596.209517756016 L 856 592 L 845.8373251423758 587.790482243984" stroke-miterlimit="10"/></g><g transform="translate(-254,-70) scale(1,1)"><path fill="none" stroke="#000000" d="M 901 528 L 901 560" stroke-miterlimit="10" stroke-dasharray="3"/></g><g transform="translate(-254,-70) scale(1,1)"><path fill="none" stroke="#000000" d="M 896.790482243984 549.8373251423759 L 901 560 L 905.209517756016 549.8373251423759" stroke-miterlimit="10"/></g><g transform="translate(-254,-70) scale(1,1)"><path fill="none" stroke="#000000" d="M 1056 512 L 1032 512 L 1032 592 L 944 592" stroke-miterlimit="10" stroke-dasharray="3"/></g><g transform="translate(-254,-70) scale(1,1)"><path fill="none" stroke="#000000" d="M 954.1626748576241 587.790482243984 L 944 592 L 954.1626748576241 596.209517756016" stroke-miterlimit="10"/></g><g transform="translate(-254,-70) scale(1,1)"><path fill="none" stroke="#000000" d="M 592 528 L 592 560" stroke-miterlimit="10" stroke-dasharray="3"/></g><g transform="translate(-254,-70) scale(1,1)"><path fill="none" stroke="#000000" d="M 587.790482243984 549.8373251423759 L 592 560 L 596.209517756016 549.8373251423759" stroke-miterlimit="10"/></g><g transform="translate(-254,-70) scale(1,1)"><path fill="none" stroke="#000000" d="M 704 528 L 704 560" stroke-miterlimit="10" stroke-dasharray="3"/></g><g transform="translate(-254,-70) scale(1,1)"><path fill="none" stroke="#000000" d="M 699.790482243984 549.8373251423759 L 704 560 L 708.209517756016 549.8373251423759" stroke-miterlimit="10"/></g><g transform="translate(-254,-70) scale(1,1)"><path fill="none" stroke="#000000" d="M 901 332 L 901 376" stroke-miterlimit="10" stroke-dasharray="3"/></g><g transform="translate(-254,-70) scale(1,1)"><path fill="none" stroke="#000000" d="M 896.790482243984 365.83732514237585 L 901 376 L 905.209517756016 365.83732514237585" stroke-miterlimit="10"/></g><g transform="translate(-254,-70) scale(1,1)"><path fill="none" stroke="#000000" d="M 901 244 L 901 288" stroke-miterlimit="10" stroke-dasharray="3"/></g><g transform="translate(-254,-70) scale(1,1)"><path fill="none" stroke="#000000" d="M 896.790482243984 277.83732514237585 L 901 288 L 905.209517756016 277.83732514237585" stroke-miterlimit="10"/></g><g transform="translate(-254,-70) scale(1,1)"><path fill="none" stroke="#000000" d="M 963 224 L 976 224 L 976 400 L 944 400" stroke-miterlimit="10" stroke-dasharray="3"/></g><g transform="translate(-254,-70) scale(1,1)"><path fill="none" stroke="#000000" d="M 954.1626748576241 395.790482243984 L 944 400 L 954.1626748576241 404.209517756016" stroke-miterlimit="10"/></g><g transform="translate(-254,-70) scale(1,1)"><path fill="none" stroke="#000000" d="M 456 344 L 536 344" stroke-miterlimit="10" stroke-dasharray="3"/></g><g transform="translate(-254,-70) scale(1,1)"><path fill="none" stroke="#000000" d="M 525.8373251423759 348.209517756016 L 536 344 L 525.8373251423758 339.790482243984" stroke-miterlimit="10"/></g><g transform="translate(-254,-70) scale(1,1)"><path fill="none" stroke="#000000" d="M 1248 353 L 1312 353" stroke-miterlimit="10" stroke-dasharray="3"/></g><g transform="translate(-254,-70) scale(1,1)"><path fill="none" stroke="#000000" d="M 1301.837325142376 357.209517756016 L 1312 353 L 1301.837325142376 348.790482243984" stroke-miterlimit="10"/></g><g transform="translate(-254,-70) scale(1,1)"><path fill="none" stroke="#000000" d="M 752 340 L 816 340" stroke-miterlimit="10" stroke-dasharray="3"/></g><g transform="translate(-254,-70) scale(1,1)"><path fill="none" stroke="#000000" d="M 805.8373251423759 344.209517756016 L 816 340 L 805.8373251423758 335.790482243984" stroke-miterlimit="10"/></g><g transform="translate(-254,-70) scale(1,1)"><path fill="none" stroke="#000000" d="M 992 340 L 1056 340" stroke-miterlimit="10" stroke-dasharray="3"/></g><g transform="translate(-254,-70) scale(1,1)"><path fill="none" stroke="#000000" d="M 1045.837325142376 344.209517756016 L 1056 340 L 1045.837325142376 335.790482243984" stroke-miterlimit="10"/></g><g transform="translate(-254,-70) scale(1,1)"><rect fill="#C0C0C0" stroke="none" x="335" y="159" width="35.19999999999999" height="15" opacity="0.2"/></g><g transform="translate(-254,-70) scale(1,1)"><rect fill="#C0C0C0" stroke="none" x="335" y="173" width="88" height="50" opacity="0.2"/></g><g transform="translate(-254,-70) scale(1,1)"><rect fill="#ffadd6" stroke="none" x="328" y="167" width="88" height="49"/></g><g transform="translate(-254,-70) scale(1,1)"><path fill="none" stroke="#000000" d="M 328 167 L 416 167 L 416 216 L 328 216 L 328 167 Z Z" stroke-miterlimit="10"/></g><g transform="translate(-254,-70) scale(1,1)"><rect fill="#ffadd6" stroke="none" x="328" y="152" width="35.19999999999999" height="15"/></g><g transform="translate(-254,-70) scale(1,1)"><path fill="none" stroke="#000000" d="M 328 152 L 363.2 152 L 363.2 167 L 328 167 L 328 152 Z Z" stroke-miterlimit="10"/></g><g transform="translate(-254,-70) scale(1,1)"><rect fill="#ffadd6" stroke="none" x="328" y="166" width="88" height="50"/></g><g transform="translate(-254,-70) scale(1,1)"><path fill="none" stroke="#000000" d="M 328 166 L 416 166 L 416 216 L 328 216 L 328 166 Z Z" stroke-miterlimit="10"/></g><g transform="translate(-254,-70) scale(1,1)"><g><path fill="none" stroke="none"/><text fill="#000000" stroke="none" font-family="Arial" font-size="13px" font-style="normal" font-weight="bold" text-decoration="none" x="353.214111328125" y="183.5">pages</text></g></g><g transform="translate(-254,-70) scale(1,1)"><rect fill="#C0C0C0" stroke="none" x="335" y="284" width="35.19999999999999" height="15" opacity="0.2"/></g><g transform="translate(-254,-70) scale(1,1)"><rect fill="#C0C0C0" stroke="none" x="335" y="298" width="88" height="50" opacity="0.2"/></g><g transform="translate(-254,-70) scale(1,1)"><rect fill="#ffadd6" stroke="none" x="328" y="292" width="88" height="49"/></g><g transform="translate(-254,-70) scale(1,1)"><path fill="none" stroke="#000000" d="M 328 292 L 416 292 L 416 341 L 328 341 L 328 292 Z Z" stroke-miterlimit="10"/></g><g transform="translate(-254,-70) scale(1,1)"><rect fill="#ffadd6" stroke="none" x="328" y="277" width="35.19999999999999" height="15"/></g><g transform="translate(-254,-70) scale(1,1)"><path fill="none" stroke="#000000" d="M 328 277 L 363.2 277 L 363.2 292 L 328 292 L 328 277 Z Z" stroke-miterlimit="10"/></g><g transform="translate(-254,-70) scale(1,1)"><rect fill="#ffadd6" stroke="none" x="328" y="291" width="88" height="50"/></g><g transform="translate(-254,-70) scale(1,1)"><path fill="none" stroke="#000000" d="M 328 291 L 416 291 L 416 341 L 328 341 L 328 291 Z Z" stroke-miterlimit="10"/></g><g transform="translate(-254,-70) scale(1,1)"><g><path fill="none" stroke="none"/><text fill="#000000" stroke="none" font-family="Arial" font-size="13px" font-style="normal" font-weight="bold" text-decoration="none" x="333.358642578125" y="309.5">components</text></g></g><g transform="translate(-254,-70) scale(1,1)"><rect fill="#C0C0C0" stroke="none" x="335" y="415" width="35.19999999999999" height="15" opacity="0.2"/></g><g transform="translate(-254,-70) scale(1,1)"><rect fill="#C0C0C0" stroke="none" x="335" y="429" width="88" height="50" opacity="0.2"/></g><g transform="translate(-254,-70) scale(1,1)"><rect fill="#ffadd6" stroke="none" x="328" y="423" width="88" height="49"/></g><g transform="translate(-254,-70) scale(1,1)"><path fill="none" stroke="#000000" d="M 328 423 L 416 423 L 416 472 L 328 472 L 328 423 Z Z" stroke-miterlimit="10"/></g><g transform="translate(-254,-70) scale(1,1)"><rect fill="#ffadd6" stroke="none" x="328" y="408" width="35.19999999999999" height="15"/></g><g transform="translate(-254,-70) scale(1,1)"><path fill="none" stroke="#000000" d="M 328 408 L 363.2 408 L 363.2 423 L 328 423 L 328 408 Z Z" stroke-miterlimit="10"/></g><g transform="translate(-254,-70) scale(1,1)"><rect fill="#ffadd6" stroke="none" x="328" y="422" width="88" height="50"/></g><g transform="translate(-254,-70) scale(1,1)"><path fill="none" stroke="#000000" d="M 328 422 L 416 422 L 416 472 L 328 472 L 328 422 Z Z" stroke-miterlimit="10"/></g><g transform="translate(-254,-70) scale(1,1)"><g><path fill="none" stroke="none"/><text fill="#000000" stroke="none" font-family="Arial" font-size="13px" font-style="normal" font-weight="bold" text-decoration="none" x="364.417724609375" y="441">lib</text></g></g><g transform="translate(-254,-70) scale(1,1)"><rect fill="#C0C0C0" stroke="none" x="335" y="535" width="35.19999999999999" height="15" opacity="0.2"/></g><g transform="translate(-254,-70) scale(1,1)"><rect fill="#C0C0C0" stroke="none" x="335" y="549" width="88" height="50" opacity="0.2"/></g><g transform="translate(-254,-70) scale(1,1)"><rect fill="#ffadd6" stroke="none" x="328" y="543" width="88" height="49"/></g><g transform="translate(-254,-70) scale(1,1)"><path fill="none" stroke="#000000" d="M 328 543 L 416 543 L 416 592 L 328 592 L 328 543 Z Z" stroke-miterlimit="10"/></g><g transform="translate(-254,-70) scale(1,1)"><rect fill="#ffadd6" stroke="none" x="328" y="528" width="35.19999999999999" height="15"/></g><g transform="translate(-254,-70) scale(1,1)"><path fill="none" stroke="#000000" d="M 328 528 L 363.2 528 L 363.2 543 L 328 543 L 328 528 Z Z" stroke-miterlimit="10"/></g><g transform="translate(-254,-70) scale(1,1)"><rect fill="#ffadd6" stroke="none" x="328" y="542" width="88" height="50"/></g><g transform="translate(-254,-70) scale(1,1)"><path fill="none" stroke="#000000" d="M 328 542 L 416 542 L 416 592 L 328 592 L 328 542 Z Z" stroke-miterlimit="10"/></g><g transform="translate(-254,-70) scale(1,1)"><g><path fill="none" stroke="none"/><text fill="#000000" stroke="none" font-family="Arial" font-size="13px" font-style="normal" font-weight="bold" text-decoration="none" x="352.858642578125" y="561">model</text></g></g><g transform="translate(-254,-70) scale(1,1)"><path fill="none" stroke="#000000" d="M 372 216 L 372 277" stroke-miterlimit="10" stroke-dasharray="3"/></g><g transform="translate(-254,-70) scale(1,1)"><path fill="none" stroke="#000000" d="M 367.790482243984 266.83732514237585 L 372 277 L 376.209517756016 266.83732514237585" stroke-miterlimit="10"/></g><g transform="translate(-254,-70) scale(1,1)"><path fill="none" stroke="#000000" d="M 372 341 L 372 408" stroke-miterlimit="10" stroke-dasharray="3"/></g><g transform="translate(-254,-70) scale(1,1)"><path fill="none" stroke="#000000" d="M 367.790482243984 397.83732514237585 L 372 408 L 376.209517756016 397.83732514237585" stroke-miterlimit="10"/></g><g transform="translate(-254,-70) scale(1,1)"><path fill="none" stroke="#000000" d="M 372 472 L 372 528" stroke-miterlimit="10" stroke-dasharray="3"/></g><g transform="translate(-254,-70) scale(1,1)"><path fill="none" stroke="#000000" d="M 367.790482243984 517.8373251423759 L 372 528 L 376.209517756016 517.8373251423759" stroke-miterlimit="10"/></g></g></svg>