<svg xmlns="http://www.w3.org/2000/svg" xmlns:xlink="http://www.w3.org/1999/xlink" version="1.1" width="524" height="244"><defs/><g><g transform="translate(-278,-62) scale(1,1)"><rect fill="#ffffff" stroke="none" x="288" y="72" width="504" height="224"/></g><g transform="translate(-278,-62) scale(1,1)"><path fill="none" stroke="#000000" d="M 288 72 L 792 72 L 792 296 L 288 296 L 288 72 Z Z" stroke-miterlimit="10"/></g><g transform="translate(-278,-62) scale(1,1)"><rect fill="#C0C0C0" stroke="none" x="511" y="119" width="81.2109375" height="32" opacity="0.2"/></g><g transform="translate(-278,-62) scale(1,1)"><rect fill="#ebffd8" stroke="none" x="504" y="112" width="81.2109375" height="32"/></g><g transform="translate(-278,-62) scale(1,1)"><path fill="none" stroke="#000000" d="M 504 112 L 585.2109375 112 L 585.2109375 144 L 504 144 L 504 112 Z Z" stroke-miterlimit="10"/></g><g transform="translate(-278,-62) scale(1,1)"><g><path fill="none" stroke="none"/><text fill="#000000" stroke="none" font-family="Arial" font-size="13px" font-style="normal" font-weight="bold" text-decoration="none" x="510.655029296875" y="128">Dashboard</text></g></g><g transform="translate(-278,-62) scale(1,1)"><rect fill="#C0C0C0" stroke="none" x="335" y="239" width="81.2109375" height="32" opacity="0.2"/></g><g transform="translate(-278,-62) scale(1,1)"><rect fill="#d1ffa3" stroke="none" x="328" y="232" width="81.2109375" height="32"/></g><g transform="translate(-278,-62) scale(1,1)"><path fill="none" stroke="#000000" d="M 328 232 L 409.2109375 232 L 409.2109375 264 L 328 264 L 328 232 Z Z" stroke-miterlimit="10"/></g><g transform="translate(-278,-62) scale(1,1)"><g><path fill="none" stroke="none"/><text fill="#000000" stroke="none" font-family="Arial" font-size="13px" font-style="normal" font-weight="bold" text-decoration="none" x="352.111083984375" y="248">Table</text></g></g><g transform="translate(-278,-62) scale(1,1)"><rect fill="#C0C0C0" stroke="none" x="511" y="239" width="81.2109375" height="32" opacity="0.2"/></g><g transform="translate(-278,-62) scale(1,1)"><rect fill="#b6ff6d" stroke="none" x="504" y="232" width="81.2109375" height="32"/></g><g transform="translate(-278,-62) scale(1,1)"><path fill="none" stroke="#000000" d="M 504 232 L 585.2109375 232 L 585.2109375 264 L 504 264 L 504 232 Z Z" stroke-miterlimit="10"/></g><g transform="translate(-278,-62) scale(1,1)"><g><path fill="none" stroke="none"/><text fill="#000000" stroke="none" font-family="Arial" font-size="13px" font-style="normal" font-weight="bold" text-decoration="none" x="529.79638671875" y="248">Card</text></g></g><g transform="translate(-278,-62) scale(1,1)"><rect fill="#C0C0C0" stroke="none" x="679" y="119" width="81.2109375" height="32" opacity="0.2"/></g><g transform="translate(-278,-62) scale(1,1)"><rect fill="#ffa3ff" stroke="none" x="672" y="112" width="81.2109375" height="32"/></g><g transform="translate(-278,-62) scale(1,1)"><path fill="none" stroke="#000000" d="M 672 112 L 753.2109375 112 L 753.2109375 144 L 672 144 L 672 112 Z Z" stroke-miterlimit="10"/></g><g transform="translate(-278,-62) scale(1,1)"><g><path fill="none" stroke="none"/><text fill="#000000" stroke="none" font-family="Arial" font-size="13px" font-style="normal" font-weight="bold" text-decoration="none" x="701.531982421875" y="128">Tag</text></g></g><g transform="translate(-278,-62) scale(1,1)"><path fill="none" stroke="#000000" d="M 504 128 L 376 128 M 376 128 A 8 8 0 0 0 368 136 L 368 232" stroke-miterlimit="10"/></g><g transform="translate(-278,-62) scale(1,1)"><path fill="none" stroke="#000000" d="M 368 218 L 361 232" stroke-miterlimit="10"/></g><g transform="translate(-278,-62) scale(1,1)"><path fill="none" stroke="#000000" d="M 368 218 L 375 232" stroke-miterlimit="10"/></g><g transform="translate(-278,-62) scale(1,1)"><path fill="#FFFFFF" stroke="none" d="M 361 210 C 361 206.1340064 364.1340064 203 368 203 C 371.8659936 203 375 206.1340064 375 210 C 375 213.8659936 371.8659936 217 368 217 C 364.1340064 217 361 213.8659936 361 210 Z"/></g><g transform="translate(-278,-62) scale(1,1)"><path fill="none" stroke="#000000" d="M 361 210 C 361 206.1340064 364.1340064 203 368 203 C 371.8659936 203 375 206.1340064 375 210 C 375 213.8659936 371.8659936 217 368 217 C 364.1340064 217 361 213.8659936 361 210 Z" stroke-miterlimit="10"/></g><g transform="translate(-278,-62) scale(1,1)"><path fill="none" stroke="#000000" d="M 497 135 L 497 121" stroke-miterlimit="10"/></g><g transform="translate(-278,-62) scale(1,1)"><path fill="none" stroke="#000000" d="M 490 135 L 490 121" stroke-miterlimit="10"/></g><g transform="translate(-278,-62) scale(1,1)"><g><path fill="none" stroke="none"/><text fill="#000000" stroke="none" font-family="Arial" font-size="13px" font-style="normal" font-weight="normal" text-decoration="none" x="422.5" y="115">keeps</text></g></g><g transform="translate(-278,-62) scale(1,1)"><g><path fill="none" stroke="none"/><text fill="#000000" stroke="none" font-family="Arial" font-size="13px" font-style="normal" font-weight="normal" text-decoration="none" x="477.5" y="142"/></g></g><g transform="translate(-278,-62) scale(1,1)"><g><path fill="none" stroke="none"/><text fill="#000000" stroke="none" font-family="Arial" font-size="13px" font-style="normal" font-weight="normal" text-decoration="none" x="382.5" y="206"/></g></g><g transform="translate(-278,-62) scale(1,1)"><path fill="none" stroke="#000000" d="M 409 248 L 504 248" stroke-miterlimit="10"/></g><g transform="translate(-278,-62) scale(1,1)"><path fill="none" stroke="#000000" d="M 490 248 L 504 255" stroke-miterlimit="10"/></g><g transform="translate(-278,-62) scale(1,1)"><path fill="none" stroke="#000000" d="M 490 248 L 504 241" stroke-miterlimit="10"/></g><g transform="translate(-278,-62) scale(1,1)"><path fill="#FFFFFF" stroke="none" d="M 475 248 C 475 244.1340064 478.1340064 241 482 241 C 485.8659936 241 489 244.1340064 489 248 C 489 251.8659936 485.8659936 255 482 255 C 478.1340064 255 475 251.8659936 475 248 Z"/></g><g transform="translate(-278,-62) scale(1,1)"><path fill="none" stroke="#000000" d="M 475 248 C 475 244.1340064 478.1340064 241 482 241 C 485.8659936 241 489 244.1340064 489 248 C 489 251.8659936 485.8659936 255 482 255 C 478.1340064 255 475 251.8659936 475 248 Z" stroke-miterlimit="10"/></g><g transform="translate(-278,-62) scale(1,1)"><path fill="none" stroke="#000000" d="M 416 241 L 416 255" stroke-miterlimit="10"/></g><g transform="translate(-278,-62) scale(1,1)"><path fill="none" stroke="#000000" d="M 423 241 L 423 255" stroke-miterlimit="10"/></g><g transform="translate(-278,-62) scale(1,1)"><g><path fill="none" stroke="none"/><text fill="#000000" stroke="none" font-family="Arial" font-size="13px" font-style="normal" font-weight="normal" text-decoration="none" x="430.5" y="234">contains</text></g></g><g transform="translate(-278,-62) scale(1,1)"><g><path fill="none" stroke="none"/><text fill="#000000" stroke="none" font-family="Arial" font-size="13px" font-style="normal" font-weight="normal" text-decoration="none" x="433.5" y="233"/></g></g><g transform="translate(-278,-62) scale(1,1)"><g><path fill="none" stroke="none"/><text fill="#000000" stroke="none" font-family="Arial" font-size="13px" font-style="normal" font-weight="normal" text-decoration="none" x="477.5" y="233"/></g></g><g transform="translate(-278,-62) scale(1,1)"><path fill="none" stroke="#000000" d="M 585 128 L 672 128" stroke-miterlimit="10"/></g><g transform="translate(-278,-62) scale(1,1)"><path fill="none" stroke="#000000" d="M 658 128 L 672 135" stroke-miterlimit="10"/></g><g transform="translate(-278,-62) scale(1,1)"><path fill="none" stroke="#000000" d="M 658 128 L 672 121" stroke-miterlimit="10"/></g><g transform="translate(-278,-62) scale(1,1)"><path fill="#FFFFFF" stroke="none" d="M 643 128 C 643 124.1340064 646.1340064 121 650 121 C 653.8659936 121 657 124.1340064 657 128 C 657 131.8659936 653.8659936 135 650 135 C 646.1340064 135 643 131.8659936 643 128 Z"/></g><g transform="translate(-278,-62) scale(1,1)"><path fill="none" stroke="#000000" d="M 643 128 C 643 124.1340064 646.1340064 121 650 121 C 653.8659936 121 657 124.1340064 657 128 C 657 131.8659936 653.8659936 135 650 135 C 646.1340064 135 643 131.8659936 643 128 Z" stroke-miterlimit="10"/></g><g transform="translate(-278,-62) scale(1,1)"><path fill="none" stroke="#000000" d="M 592 121 L 592 135" stroke-miterlimit="10"/></g><g transform="translate(-278,-62) scale(1,1)"><path fill="none" stroke="#000000" d="M 599 121 L 599 135" stroke-miterlimit="10"/></g><g transform="translate(-278,-62) scale(1,1)"><g><path fill="none" stroke="none"/><text fill="#000000" stroke="none" font-family="Arial" font-size="13px" font-style="normal" font-weight="normal" text-decoration="none" x="607.697265625" y="97.5">sets</text><text fill="#000000" stroke="none" font-family="Arial" font-size="13px" font-style="normal" font-weight="normal" text-decoration="none" x="597.226806640625" y="111">(locally)</text></g></g><g transform="translate(-278,-62) scale(1,1)"><g><path fill="none" stroke="none"/><text fill="#000000" stroke="none" font-family="Arial" font-size="13px" font-style="normal" font-weight="normal" text-decoration="none" x="645.5" y="113"/></g></g><g transform="translate(-278,-62) scale(1,1)"><path fill="none" stroke="#000000" d="M 585 248 L 704 248 M 704 248 A 8 8 0 0 0 712 240 L 712 144" stroke-miterlimit="10"/></g><g transform="translate(-278,-62) scale(1,1)"><path fill="none" stroke="#000000" d="M 712 158 L 719 144" stroke-miterlimit="10"/></g><g transform="translate(-278,-62) scale(1,1)"><path fill="none" stroke="#000000" d="M 712 158 L 705 144" stroke-miterlimit="10"/></g><g transform="translate(-278,-62) scale(1,1)"><path fill="#FFFFFF" stroke="none" d="M 705 166 C 705 162.1340064 708.1340064 159 712 159 C 715.8659936 159 719 162.1340064 719 166 C 719 169.8659936 715.8659936 173 712 173 C 708.1340064 173 705 169.8659936 705 166 Z"/></g><g transform="translate(-278,-62) scale(1,1)"><path fill="none" stroke="#000000" d="M 705 166 C 705 162.1340064 708.1340064 159 712 159 C 715.8659936 159 719 162.1340064 719 166 C 719 169.8659936 715.8659936 173 712 173 C 708.1340064 173 705 169.8659936 705 166 Z" stroke-miterlimit="10"/></g><g transform="translate(-278,-62) scale(1,1)"><path fill="none" stroke="#000000" d="M 599 248 L 585 241" stroke-miterlimit="10"/></g><g transform="translate(-278,-62) scale(1,1)"><path fill="none" stroke="#000000" d="M 599 248 L 585 255" stroke-miterlimit="10"/></g><g transform="translate(-278,-62) scale(1,1)"><path fill="#FFFFFF" stroke="none" d="M 600 248 C 600 244.1340064 603.1340064 241 607 241 C 610.8659936 241 614 244.1340064 614 248 C 614 251.8659936 610.8659936 255 607 255 C 603.1340064 255 600 251.8659936 600 248 Z"/></g><g transform="translate(-278,-62) scale(1,1)"><path fill="none" stroke="#000000" d="M 600 248 C 600 244.1340064 603.1340064 241 607 241 C 610.8659936 241 614 244.1340064 614 248 C 614 251.8659936 610.8659936 255 607 255 C 603.1340064 255 600 251.8659936 600 248 Z" stroke-miterlimit="10"/></g><g transform="translate(-278,-62) scale(1,1)"><g><path fill="none" stroke="none"/><text fill="#000000" stroke="none" font-family="Arial" font-size="13px" font-style="normal" font-weight="normal" text-decoration="none" x="638.5" y="235">labels</text></g></g><g transform="translate(-278,-62) scale(1,1)"><g><path fill="none" stroke="none"/><text fill="#000000" stroke="none" font-family="Arial" font-size="13px" font-style="normal" font-weight="normal" text-decoration="none" x="609.5" y="233"/></g></g><g transform="translate(-278,-62) scale(1,1)"><g><path fill="none" stroke="none"/><text fill="#000000" stroke="none" font-family="Arial" font-size="13px" font-style="normal" font-weight="normal" text-decoration="none" x="696.5" y="169"/></g></g><g transform="translate(-278,-62) scale(1,1)"><path fill="none" stroke="#000000" d="M 544 144 L 544 232" stroke-miterlimit="10"/></g><g transform="translate(-278,-62) scale(1,1)"><path fill="none" stroke="#000000" d="M 544 218 L 537 232" stroke-miterlimit="10"/></g><g transform="translate(-278,-62) scale(1,1)"><path fill="none" stroke="#000000" d="M 544 218 L 551 232" stroke-miterlimit="10"/></g><g transform="translate(-278,-62) scale(1,1)"><path fill="#FFFFFF" stroke="none" d="M 537 210 C 537 206.1340064 540.1340064 203 544 203 C 547.8659936 203 551 206.1340064 551 210 C 551 213.8659936 547.8659936 217 544 217 C 540.1340064 217 537 213.8659936 537 210 Z"/></g><g transform="translate(-278,-62) scale(1,1)"><path fill="none" stroke="#000000" d="M 537 210 C 537 206.1340064 540.1340064 203 544 203 C 547.8659936 203 551 206.1340064 551 210 C 551 213.8659936 547.8659936 217 544 217 C 540.1340064 217 537 213.8659936 537 210 Z" stroke-miterlimit="10"/></g><g transform="translate(-278,-62) scale(1,1)"><path fill="none" stroke="#000000" d="M 551 151 L 537 151" stroke-miterlimit="10"/></g><g transform="translate(-278,-62) scale(1,1)"><path fill="none" stroke="#000000" d="M 551 158 L 537 158" stroke-miterlimit="10"/></g><g transform="translate(-278,-62) scale(1,1)"><g><path fill="none" stroke="none"/><text fill="#000000" stroke="none" font-family="Arial" font-size="13px" font-style="normal" font-weight="normal" text-decoration="none" x="559.697265625" y="180.5">uses</text><text fill="#000000" stroke="none" font-family="Arial" font-size="13px" font-style="normal" font-weight="normal" text-decoration="none" x="551.035888671875" y="195">(locally)</text></g></g><g transform="translate(-278,-62) scale(1,1)"><g><path fill="none" stroke="none"/><text fill="#000000" stroke="none" font-family="Arial" font-size="13px" font-style="normal" font-weight="normal" text-decoration="none" x="589.5" y="158"/></g></g><g transform="translate(-278,-62) scale(1,1)"><g><path fill="none" stroke="none"/><text fill="#000000" stroke="none" font-family="Arial" font-size="13px" font-style="normal" font-weight="normal" text-decoration="none" x="558.5" y="206"/></g></g></g></svg>