<svg xmlns="http://www.w3.org/2000/svg" xmlns:xlink="http://www.w3.org/1999/xlink" version="1.1" width="524" height="324"><defs/><g><g transform="translate(-278,-70) scale(1,1)"><rect fill="#ffffff" stroke="none" x="288" y="80" width="504" height="304"/></g><g transform="translate(-278,-70) scale(1,1)"><path fill="none" stroke="#000000" d="M 288 80 L 792 80 L 792 384 L 288 384 L 288 80 Z Z" stroke-miterlimit="10"/></g><g transform="translate(-278,-70) scale(1,1)"><rect fill="#C0C0C0" stroke="none" x="343" y="216" width="81.2109375" height="32" opacity="0.2"/></g><g transform="translate(-278,-70) scale(1,1)"><rect fill="#ffd8ff" stroke="none" x="336" y="209" width="81.2109375" height="32"/></g><g transform="translate(-278,-70) scale(1,1)"><path fill="none" stroke="#000000" d="M 336 209 L 417.2109375 209 L 417.2109375 241 L 336 241 L 336 209 Z Z" stroke-miterlimit="10"/></g><g transform="translate(-278,-70) scale(1,1)"><g><path fill="none" stroke="none"/><text fill="#000000" stroke="none" font-family="Arial" font-size="13px" font-style="normal" font-weight="bold" text-decoration="none" x="360.7109375" y="225">State</text></g></g><g transform="translate(-278,-70) scale(1,1)"><rect fill="#C0C0C0" stroke="none" x="508" y="216" width="81.2109375" height="32" opacity="0.2"/></g><g transform="translate(-278,-70) scale(1,1)"><rect fill="#ebffd8" stroke="none" x="501" y="209" width="81.2109375" height="32"/></g><g transform="translate(-278,-70) scale(1,1)"><path fill="none" stroke="#000000" d="M 501 209 L 582.2109375 209 L 582.2109375 241 L 501 241 L 501 209 Z Z" stroke-miterlimit="10"/></g><g transform="translate(-278,-70) scale(1,1)"><g><path fill="none" stroke="none"/><text fill="#000000" stroke="none" font-family="Arial" font-size="13px" font-style="normal" font-weight="bold" text-decoration="none" x="507.655029296875" y="225">Dashboard</text></g></g><g transform="translate(-278,-70) scale(1,1)"><rect fill="#C0C0C0" stroke="none" x="673" y="216" width="81.2109375" height="32" opacity="0.2"/></g><g transform="translate(-278,-70) scale(1,1)"><rect fill="#d1ffa3" stroke="none" x="666" y="209" width="81.2109375" height="32"/></g><g transform="translate(-278,-70) scale(1,1)"><path fill="none" stroke="#000000" d="M 666 209 L 747.2109375 209 L 747.2109375 241 L 666 241 L 666 209 Z Z" stroke-miterlimit="10"/></g><g transform="translate(-278,-70) scale(1,1)"><g><path fill="none" stroke="none"/><text fill="#000000" stroke="none" font-family="Arial" font-size="13px" font-style="normal" font-weight="bold" text-decoration="none" x="690.111083984375" y="225">Table</text></g></g><g transform="translate(-278,-70) scale(1,1)"><rect fill="#C0C0C0" stroke="none" x="671" y="319" width="81.2109375" height="32" opacity="0.2"/></g><g transform="translate(-278,-70) scale(1,1)"><rect fill="#b6ff6d" stroke="none" x="664" y="312" width="81.2109375" height="32"/></g><g transform="translate(-278,-70) scale(1,1)"><path fill="none" stroke="#000000" d="M 664 312 L 745.2109375 312 L 745.2109375 344 L 664 344 L 664 312 Z Z" stroke-miterlimit="10"/></g><g transform="translate(-278,-70) scale(1,1)"><g><path fill="none" stroke="none"/><text fill="#000000" stroke="none" font-family="Arial" font-size="13px" font-style="normal" font-weight="bold" text-decoration="none" x="689.79638671875" y="328">Card</text></g></g><g transform="translate(-278,-70) scale(1,1)"><rect fill="#C0C0C0" stroke="none" x="343" y="319" width="81.2109375" height="32" opacity="0.2"/></g><g transform="translate(-278,-70) scale(1,1)"><rect fill="#ffa3ff" stroke="none" x="336" y="312" width="81.2109375" height="32"/></g><g transform="translate(-278,-70) scale(1,1)"><path fill="none" stroke="#000000" d="M 336 312 L 417.2109375 312 L 417.2109375 344 L 336 344 L 336 312 Z Z" stroke-miterlimit="10"/></g><g transform="translate(-278,-70) scale(1,1)"><g><path fill="none" stroke="none"/><text fill="#000000" stroke="none" font-family="Arial" font-size="13px" font-style="normal" font-weight="bold" text-decoration="none" x="340.5" y="328">Automation</text></g></g><g transform="translate(-278,-70) scale(1,1)"><rect fill="#C0C0C0" stroke="none" x="343" y="119" width="81.2109375" height="32" opacity="0.2"/></g><g transform="translate(-278,-70) scale(1,1)"><rect fill="#ffa3ff" stroke="none" x="336" y="112" width="81.2109375" height="32"/></g><g transform="translate(-278,-70) scale(1,1)"><path fill="none" stroke="#000000" d="M 336 112 L 417.2109375 112 L 417.2109375 144 L 336 144 L 336 112 Z Z" stroke-miterlimit="10"/></g><g transform="translate(-278,-70) scale(1,1)"><g><path fill="none" stroke="none"/><text fill="#000000" stroke="none" font-family="Arial" font-size="13px" font-style="normal" font-weight="bold" text-decoration="none" x="365.531982421875" y="128">Tag</text></g></g><g transform="translate(-278,-70) scale(1,1)"><path fill="none" stroke="#000000" d="M 417 224 L 501 224" stroke-miterlimit="10"/></g><g transform="translate(-278,-70) scale(1,1)"><path fill="none" stroke="#000000" d="M 487 224 L 501 231" stroke-miterlimit="10"/></g><g transform="translate(-278,-70) scale(1,1)"><path fill="none" stroke="#000000" d="M 487 224 L 501 217" stroke-miterlimit="10"/></g><g transform="translate(-278,-70) scale(1,1)"><path fill="#FFFFFF" stroke="none" d="M 472 224 C 472 220.1340064 475.1340064 217 479 217 C 482.8659936 217 486 220.1340064 486 224 C 486 227.8659936 482.8659936 231 479 231 C 475.1340064 231 472 227.8659936 472 224 Z"/></g><g transform="translate(-278,-70) scale(1,1)"><path fill="none" stroke="#000000" d="M 472 224 C 472 220.1340064 475.1340064 217 479 217 C 482.8659936 217 486 220.1340064 486 224 C 486 227.8659936 482.8659936 231 479 231 C 475.1340064 231 472 227.8659936 472 224 Z" stroke-miterlimit="10"/></g><g transform="translate(-278,-70) scale(1,1)"><path fill="none" stroke="#000000" d="M 424 217 L 424 231" stroke-miterlimit="10"/></g><g transform="translate(-278,-70) scale(1,1)"><path fill="none" stroke="#000000" d="M 431 217 L 431 231" stroke-miterlimit="10"/></g><g transform="translate(-278,-70) scale(1,1)"><g><path fill="none" stroke="none"/><text fill="#000000" stroke="none" font-family="Arial" font-size="13px" font-style="normal" font-weight="normal" text-decoration="none" x="432.5" y="212.5">manages</text></g></g><g transform="translate(-278,-70) scale(1,1)"><g><path fill="none" stroke="none"/><text fill="#000000" stroke="none" font-family="Arial" font-size="13px" font-style="normal" font-weight="normal" text-decoration="none" x="441.5" y="209"/></g></g><g transform="translate(-278,-70) scale(1,1)"><g><path fill="none" stroke="none"/><text fill="#000000" stroke="none" font-family="Arial" font-size="13px" font-style="normal" font-weight="normal" text-decoration="none" x="474.5" y="209"/></g></g><g transform="translate(-278,-70) scale(1,1)"><path fill="none" stroke="#000000" d="M 582 224 L 666 224" stroke-miterlimit="10"/></g><g transform="translate(-278,-70) scale(1,1)"><path fill="none" stroke="#000000" d="M 652 224 L 666 231" stroke-miterlimit="10"/></g><g transform="translate(-278,-70) scale(1,1)"><path fill="none" stroke="#000000" d="M 652 224 L 666 217" stroke-miterlimit="10"/></g><g transform="translate(-278,-70) scale(1,1)"><path fill="#FFFFFF" stroke="none" d="M 637 224 C 637 220.1340064 640.1340064 217 644 217 C 647.8659936 217 651 220.1340064 651 224 C 651 227.8659936 647.8659936 231 644 231 C 640.1340064 231 637 227.8659936 637 224 Z"/></g><g transform="translate(-278,-70) scale(1,1)"><path fill="none" stroke="#000000" d="M 637 224 C 637 220.1340064 640.1340064 217 644 217 C 647.8659936 217 651 220.1340064 651 224 C 651 227.8659936 647.8659936 231 644 231 C 640.1340064 231 637 227.8659936 637 224 Z" stroke-miterlimit="10"/></g><g transform="translate(-278,-70) scale(1,1)"><path fill="none" stroke="#000000" d="M 589 217 L 589 231" stroke-miterlimit="10"/></g><g transform="translate(-278,-70) scale(1,1)"><path fill="none" stroke="#000000" d="M 596 217 L 596 231" stroke-miterlimit="10"/></g><g transform="translate(-278,-70) scale(1,1)"><g><path fill="none" stroke="none"/><text fill="#000000" stroke="none" font-family="Arial" font-size="13px" font-style="normal" font-weight="normal" text-decoration="none" x="598.5" y="213">keeps</text></g></g><g transform="translate(-278,-70) scale(1,1)"><g><path fill="none" stroke="none"/><text fill="#000000" stroke="none" font-family="Arial" font-size="13px" font-style="normal" font-weight="normal" text-decoration="none" x="606.5" y="209"/></g></g><g transform="translate(-278,-70) scale(1,1)"><g><path fill="none" stroke="none"/><text fill="#000000" stroke="none" font-family="Arial" font-size="13px" font-style="normal" font-weight="normal" text-decoration="none" x="639.5" y="209"/></g></g><g transform="translate(-278,-70) scale(1,1)"><path fill="none" stroke="#000000" d="M 704 241 L 704 312" stroke-miterlimit="10"/></g><g transform="translate(-278,-70) scale(1,1)"><path fill="none" stroke="#000000" d="M 704 298 L 697 312" stroke-miterlimit="10"/></g><g transform="translate(-278,-70) scale(1,1)"><path fill="none" stroke="#000000" d="M 704 298 L 711 312" stroke-miterlimit="10"/></g><g transform="translate(-278,-70) scale(1,1)"><path fill="#FFFFFF" stroke="none" d="M 697 290 C 697 286.1340064 700.1340064 283 704 283 C 707.8659936 283 711 286.1340064 711 290 C 711 293.8659936 707.8659936 297 704 297 C 700.1340064 297 697 293.8659936 697 290 Z"/></g><g transform="translate(-278,-70) scale(1,1)"><path fill="none" stroke="#000000" d="M 697 290 C 697 286.1340064 700.1340064 283 704 283 C 707.8659936 283 711 286.1340064 711 290 C 711 293.8659936 707.8659936 297 704 297 C 700.1340064 297 697 293.8659936 697 290 Z" stroke-miterlimit="10"/></g><g transform="translate(-278,-70) scale(1,1)"><path fill="none" stroke="#000000" d="M 711 248 L 697 248" stroke-miterlimit="10"/></g><g transform="translate(-278,-70) scale(1,1)"><path fill="none" stroke="#000000" d="M 711 255 L 697 255" stroke-miterlimit="10"/></g><g transform="translate(-278,-70) scale(1,1)"><g><path fill="none" stroke="none"/><text fill="#000000" stroke="none" font-family="Arial" font-size="13px" font-style="normal" font-weight="normal" text-decoration="none" x="710.5" y="280">contains</text></g></g><g transform="translate(-278,-70) scale(1,1)"><g><path fill="none" stroke="none"/><text fill="#000000" stroke="none" font-family="Arial" font-size="13px" font-style="normal" font-weight="normal" text-decoration="none" x="718.5" y="266"/></g></g><g transform="translate(-278,-70) scale(1,1)"><g><path fill="none" stroke="none"/><text fill="#000000" stroke="none" font-family="Arial" font-size="13px" font-style="normal" font-weight="normal" text-decoration="none" x="718.5" y="286"/></g></g><g transform="translate(-278,-70) scale(1,1)"><path fill="none" stroke="#000000" d="M 541 209 L 541 136 M 541 136 A 8 8 0 0 0 533 128 L 417 128" stroke-miterlimit="10"/></g><g transform="translate(-278,-70) scale(1,1)"><path fill="none" stroke="#000000" d="M 431 128 L 417 121" stroke-miterlimit="10"/></g><g transform="translate(-278,-70) scale(1,1)"><path fill="none" stroke="#000000" d="M 431 128 L 417 135" stroke-miterlimit="10"/></g><g transform="translate(-278,-70) scale(1,1)"><path fill="#FFFFFF" stroke="none" d="M 432 128 C 432 124.1340064 435.1340064 121 439 121 C 442.8659936 121 446 124.1340064 446 128 C 446 131.8659936 442.8659936 135 439 135 C 435.1340064 135 432 131.8659936 432 128 Z"/></g><g transform="translate(-278,-70) scale(1,1)"><path fill="none" stroke="#000000" d="M 432 128 C 432 124.1340064 435.1340064 121 439 121 C 442.8659936 121 446 124.1340064 446 128 C 446 131.8659936 442.8659936 135 439 135 C 435.1340064 135 432 131.8659936 432 128 Z" stroke-miterlimit="10"/></g><g transform="translate(-278,-70) scale(1,1)"><path fill="none" stroke="#000000" d="M 534 202 L 548 202" stroke-miterlimit="10"/></g><g transform="translate(-278,-70) scale(1,1)"><path fill="none" stroke="#000000" d="M 534 195 L 548 195" stroke-miterlimit="10"/></g><g transform="translate(-278,-70) scale(1,1)"><g><path fill="none" stroke="none"/><text fill="#000000" stroke="none" font-family="Arial" font-size="13px" font-style="normal" font-weight="normal" text-decoration="none" x="558.697265625" y="169.5">sets</text><text fill="#000000" stroke="none" font-family="Arial" font-size="13px" font-style="normal" font-weight="normal" text-decoration="none" x="548.226806640625" y="183">(locally)</text></g></g><g transform="translate(-278,-70) scale(1,1)"><g><path fill="none" stroke="none"/><text fill="#000000" stroke="none" font-family="Arial" font-size="13px" font-style="normal" font-weight="normal" text-decoration="none" x="441.5" y="142"/></g></g><g transform="translate(-278,-70) scale(1,1)"><path fill="none" stroke="#000000" d="M 376 241 L 376 312" stroke-miterlimit="10"/></g><g transform="translate(-278,-70) scale(1,1)"><path fill="none" stroke="#000000" d="M 376 298 L 369 312" stroke-miterlimit="10"/></g><g transform="translate(-278,-70) scale(1,1)"><path fill="none" stroke="#000000" d="M 376 298 L 383 312" stroke-miterlimit="10"/></g><g transform="translate(-278,-70) scale(1,1)"><path fill="#FFFFFF" stroke="none" d="M 369 290 C 369 286.1340064 372.1340064 283 376 283 C 379.8659936 283 383 286.1340064 383 290 C 383 293.8659936 379.8659936 297 376 297 C 372.1340064 297 369 293.8659936 369 290 Z"/></g><g transform="translate(-278,-70) scale(1,1)"><path fill="none" stroke="#000000" d="M 369 290 C 369 286.1340064 372.1340064 283 376 283 C 379.8659936 283 383 286.1340064 383 290 C 383 293.8659936 379.8659936 297 376 297 C 372.1340064 297 369 293.8659936 369 290 Z" stroke-miterlimit="10"/></g><g transform="translate(-278,-70) scale(1,1)"><path fill="none" stroke="#000000" d="M 383 248 L 369 248" stroke-miterlimit="10"/></g><g transform="translate(-278,-70) scale(1,1)"><path fill="none" stroke="#000000" d="M 383 255 L 369 255" stroke-miterlimit="10"/></g><g transform="translate(-278,-70) scale(1,1)"><g><path fill="none" stroke="none"/><text fill="#000000" stroke="none" font-family="Arial" font-size="13px" font-style="normal" font-weight="normal" text-decoration="none" x="394.67724609375" y="267">affects</text><text fill="#000000" stroke="none" font-family="Arial" font-size="13px" font-style="normal" font-weight="normal" text-decoration="none" x="387.336181640625" y="280">(globally)</text></g></g><g transform="translate(-278,-70) scale(1,1)"><g><path fill="none" stroke="none"/><text fill="#000000" stroke="none" font-family="Arial" font-size="13px" font-style="normal" font-weight="normal" text-decoration="none" x="390.5" y="266"/></g></g><g transform="translate(-278,-70) scale(1,1)"><g><path fill="none" stroke="none"/><text fill="#000000" stroke="none" font-family="Arial" font-size="13px" font-style="normal" font-weight="normal" text-decoration="none" x="390.5" y="286"/></g></g><g transform="translate(-278,-70) scale(1,1)"><path fill="none" stroke="#000000" d="M 541 241 L 541 320 M 541 320 A 8 8 0 0 1 533 328 L 417 328" stroke-miterlimit="10"/></g><g transform="translate(-278,-70) scale(1,1)"><path fill="none" stroke="#000000" d="M 431 328 L 417 321" stroke-miterlimit="10"/></g><g transform="translate(-278,-70) scale(1,1)"><path fill="none" stroke="#000000" d="M 431 328 L 417 335" stroke-miterlimit="10"/></g><g transform="translate(-278,-70) scale(1,1)"><path fill="#FFFFFF" stroke="none" d="M 432 328 C 432 324.1340064 435.1340064 321 439 321 C 442.8659936 321 446 324.1340064 446 328 C 446 331.8659936 442.8659936 335 439 335 C 435.1340064 335 432 331.8659936 432 328 Z"/></g><g transform="translate(-278,-70) scale(1,1)"><path fill="none" stroke="#000000" d="M 432 328 C 432 324.1340064 435.1340064 321 439 321 C 442.8659936 321 446 324.1340064 446 328 C 446 331.8659936 442.8659936 335 439 335 C 435.1340064 335 432 331.8659936 432 328 Z" stroke-miterlimit="10"/></g><g transform="translate(-278,-70) scale(1,1)"><path fill="none" stroke="#000000" d="M 548 248 L 534 248" stroke-miterlimit="10"/></g><g transform="translate(-278,-70) scale(1,1)"><path fill="none" stroke="#000000" d="M 548 255 L 534 255" stroke-miterlimit="10"/></g><g transform="translate(-278,-70) scale(1,1)"><g><path fill="none" stroke="none"/><text fill="#000000" stroke="none" font-family="Arial" font-size="13px" font-style="normal" font-weight="normal" text-decoration="none" x="557.697265625" y="266">affects</text><text fill="#000000" stroke="none" font-family="Arial" font-size="13px" font-style="normal" font-weight="normal" text-decoration="none" x="554.336181640625" y="279">(locally)</text></g></g><g transform="translate(-278,-70) scale(1,1)"><g><path fill="none" stroke="none"/><text fill="#000000" stroke="none" font-family="Arial" font-size="13px" font-style="normal" font-weight="normal" text-decoration="none" x="555.5" y="266"/></g></g><g transform="translate(-278,-70) scale(1,1)"><g><path fill="none" stroke="none"/><text fill="#000000" stroke="none" font-family="Arial" font-size="13px" font-style="normal" font-weight="normal" text-decoration="none" x="441.5" y="342"/></g></g><g transform="translate(-278,-70) scale(1,1)"><path fill="none" stroke="#000000" d="M 376 209 L 376 144" stroke-miterlimit="10"/></g><g transform="translate(-278,-70) scale(1,1)"><path fill="none" stroke="#000000" d="M 376 158 L 383 144" stroke-miterlimit="10"/></g><g transform="translate(-278,-70) scale(1,1)"><path fill="none" stroke="#000000" d="M 376 158 L 369 144" stroke-miterlimit="10"/></g><g transform="translate(-278,-70) scale(1,1)"><path fill="#FFFFFF" stroke="none" d="M 369 166 C 369 162.1340064 372.1340064 159 376 159 C 379.8659936 159 383 162.1340064 383 166 C 383 169.8659936 379.8659936 173 376 173 C 372.1340064 173 369 169.8659936 369 166 Z"/></g><g transform="translate(-278,-70) scale(1,1)"><path fill="none" stroke="#000000" d="M 369 166 C 369 162.1340064 372.1340064 159 376 159 C 379.8659936 159 383 162.1340064 383 166 C 383 169.8659936 379.8659936 173 376 173 C 372.1340064 173 369 169.8659936 369 166 Z" stroke-miterlimit="10"/></g><g transform="translate(-278,-70) scale(1,1)"><path fill="none" stroke="#000000" d="M 369 202 L 383 202" stroke-miterlimit="10"/></g><g transform="translate(-278,-70) scale(1,1)"><path fill="none" stroke="#000000" d="M 369 195 L 383 195" stroke-miterlimit="10"/></g><g transform="translate(-278,-70) scale(1,1)"><g><path fill="none" stroke="none"/><text fill="#000000" stroke="none" font-family="Arial" font-size="13px" font-style="normal" font-weight="normal" text-decoration="none" x="401.67724609375" y="170.5">sets</text><text fill="#000000" stroke="none" font-family="Arial" font-size="13px" font-style="normal" font-weight="normal" text-decoration="none" x="387.226806640625" y="184">(globally)</text></g></g><g transform="translate(-278,-70) scale(1,1)"><g><path fill="none" stroke="none"/><text fill="#000000" stroke="none" font-family="Arial" font-size="13px" font-style="normal" font-weight="normal" text-decoration="none" x="360.5" y="183"/></g></g><g transform="translate(-278,-70) scale(1,1)"><g><path fill="none" stroke="none"/><text fill="#000000" stroke="none" font-family="Arial" font-size="13px" font-style="normal" font-weight="normal" text-decoration="none" x="360.5" y="169"/></g></g></g></svg>
