<svg xmlns="http://www.w3.org/2000/svg" xmlns:xlink="http://www.w3.org/1999/xlink" version="1.1" width="348" height="228"><defs/><g><g transform="translate(-150,-150) scale(1,1)"><rect fill="#ffffff" stroke="none" x="160" y="160" width="328" height="208"/></g><g transform="translate(-150,-150) scale(1,1)"><path fill="none" stroke="#000000" d="M 160 160 L 488 160 L 488 368 L 160 368 L 160 160 Z Z" stroke-miterlimit="10"/></g><g transform="translate(-150,-150) scale(1,1)"><rect fill="#C0C0C0" stroke="none" x="198" y="198" width="76.90087890625" height="32" opacity="0.2"/></g><g transform="translate(-150,-150) scale(1,1)"><rect fill="#ebffd8" stroke="none" x="191" y="191" width="76.90087890625" height="32"/></g><g transform="translate(-150,-150) scale(1,1)"><path fill="none" stroke="#000000" d="M 191 191 L 267.90087890625 191 L 267.90087890625 223 L 191 223 L 191 191 Z Z" stroke-miterlimit="10"/></g><g transform="translate(-150,-150) scale(1,1)"><g><path fill="none" stroke="none"/><text fill="#000000" stroke="none" font-family="Arial" font-size="13px" font-style="normal" font-weight="bold" text-decoration="none" x="214.996826171875" y="207">User</text></g></g><g transform="translate(-150,-150) scale(1,1)"><rect fill="#C0C0C0" stroke="none" x="382" y="198" width="76.90087890625" height="32" opacity="0.2"/></g><g transform="translate(-150,-150) scale(1,1)"><rect fill="#ebd8ff" stroke="none" x="375" y="191" width="76.90087890625" height="32"/></g><g transform="translate(-150,-150) scale(1,1)"><path fill="none" stroke="#000000" d="M 375 191 L 451.90087890625 191 L 451.90087890625 223 L 375 223 L 375 191 Z Z" stroke-miterlimit="10"/></g><g transform="translate(-150,-150) scale(1,1)"><g><path fill="none" stroke="none"/><text fill="#000000" stroke="none" font-family="Arial" font-size="13px" font-style="normal" font-weight="bold" text-decoration="none" x="379.5" y="207">Dashboard</text></g></g><g transform="translate(-150,-150) scale(1,1)"><rect fill="#C0C0C0" stroke="none" x="382" y="310" width="76.90087890625" height="32" opacity="0.2"/></g><g transform="translate(-150,-150) scale(1,1)"><rect fill="#ffd8ff" stroke="none" x="375" y="303" width="76.90087890625" height="32"/></g><g transform="translate(-150,-150) scale(1,1)"><path fill="none" stroke="#000000" d="M 375 303 L 451.90087890625 303 L 451.90087890625 335 L 375 335 L 375 303 Z Z" stroke-miterlimit="10"/></g><g transform="translate(-150,-150) scale(1,1)"><g><path fill="none" stroke="none"/><text fill="#000000" stroke="none" font-family="Arial" font-size="13px" font-style="normal" font-weight="bold" text-decoration="none" x="396.9560546875" y="319">Table</text></g></g><g transform="translate(-150,-150) scale(1,1)"><rect fill="#C0C0C0" stroke="none" x="198" y="310" width="76.90087890625" height="32" opacity="0.2"/></g><g transform="translate(-150,-150) scale(1,1)"><rect fill="#ffd8eb" stroke="none" x="191" y="303" width="76.90087890625" height="32"/></g><g transform="translate(-150,-150) scale(1,1)"><path fill="none" stroke="#000000" d="M 191 303 L 267.90087890625 303 L 267.90087890625 335 L 191 335 L 191 303 Z Z" stroke-miterlimit="10"/></g><g transform="translate(-150,-150) scale(1,1)"><g><path fill="none" stroke="none"/><text fill="#000000" stroke="none" font-family="Arial" font-size="13px" font-style="normal" font-weight="bold" text-decoration="none" x="214.641357421875" y="319">Card</text></g></g><g transform="translate(-150,-150) scale(1,1)"><path fill="none" stroke="#000000" d="M 268 208 L 375 208" stroke-miterlimit="10"/></g><g transform="translate(-150,-150) scale(1,1)"><path fill="none" stroke="#000000" d="M 361 208 L 375 215" stroke-miterlimit="10"/></g><g transform="translate(-150,-150) scale(1,1)"><path fill="none" stroke="#000000" d="M 361 208 L 375 201" stroke-miterlimit="10"/></g><g transform="translate(-150,-150) scale(1,1)"><path fill="#FFFFFF" stroke="none" d="M 346 208 C 346 204.1340064 349.1340064 201 353 201 C 356.8659936 201 360 204.1340064 360 208 C 360 211.8659936 356.8659936 215 353 215 C 349.1340064 215 346 211.8659936 346 208 Z"/></g><g transform="translate(-150,-150) scale(1,1)"><path fill="none" stroke="#000000" d="M 346 208 C 346 204.1340064 349.1340064 201 353 201 C 356.8659936 201 360 204.1340064 360 208 C 360 211.8659936 356.8659936 215 353 215 C 349.1340064 215 346 211.8659936 346 208 Z" stroke-miterlimit="10"/></g><g transform="translate(-150,-150) scale(1,1)"><path fill="none" stroke="#000000" d="M 275 201 L 275 215" stroke-miterlimit="10"/></g><g transform="translate(-150,-150) scale(1,1)"><path fill="none" stroke="#000000" d="M 282 201 L 282 215" stroke-miterlimit="10"/></g><g transform="translate(-150,-150) scale(1,1)"><g><path fill="none" stroke="none"/><text fill="#000000" stroke="none" font-family="Arial" font-size="13px" font-style="normal" font-weight="normal" text-decoration="none" x="292.5" y="193"/></g></g><g transform="translate(-150,-150) scale(1,1)"><g><path fill="none" stroke="none"/><text fill="#000000" stroke="none" font-family="Arial" font-size="13px" font-style="normal" font-weight="normal" text-decoration="none" x="348.5" y="193"/></g></g><g transform="translate(-150,-150) scale(1,1)"><path fill="none" stroke="#000000" d="M 413 223 L 413 303" stroke-miterlimit="10"/></g><g transform="translate(-150,-150) scale(1,1)"><path fill="none" stroke="#000000" d="M 413 289 L 406 303" stroke-miterlimit="10"/></g><g transform="translate(-150,-150) scale(1,1)"><path fill="none" stroke="#000000" d="M 413 289 L 420 303" stroke-miterlimit="10"/></g><g transform="translate(-150,-150) scale(1,1)"><path fill="#FFFFFF" stroke="none" d="M 406 281 C 406 277.1340064 409.1340064 274 413 274 C 416.8659936 274 420 277.1340064 420 281 C 420 284.8659936 416.8659936 288 413 288 C 409.1340064 288 406 284.8659936 406 281 Z"/></g><g transform="translate(-150,-150) scale(1,1)"><path fill="none" stroke="#000000" d="M 406 281 C 406 277.1340064 409.1340064 274 413 274 C 416.8659936 274 420 277.1340064 420 281 C 420 284.8659936 416.8659936 288 413 288 C 409.1340064 288 406 284.8659936 406 281 Z" stroke-miterlimit="10"/></g><g transform="translate(-150,-150) scale(1,1)"><path fill="none" stroke="#000000" d="M 420 230 L 406 230" stroke-miterlimit="10"/></g><g transform="translate(-150,-150) scale(1,1)"><path fill="none" stroke="#000000" d="M 420 237 L 406 237" stroke-miterlimit="10"/></g><g transform="translate(-150,-150) scale(1,1)"><g><path fill="none" stroke="none"/><text fill="#000000" stroke="none" font-family="Arial" font-size="13px" font-style="normal" font-weight="normal" text-decoration="none" x="427.5" y="248"/></g></g><g transform="translate(-150,-150) scale(1,1)"><g><path fill="none" stroke="none"/><text fill="#000000" stroke="none" font-family="Arial" font-size="13px" font-style="normal" font-weight="normal" text-decoration="none" x="427.5" y="277"/></g></g><g transform="translate(-150,-150) scale(1,1)"><path fill="none" stroke="#000000" d="M 375 320 L 268 320" stroke-miterlimit="10"/></g><g transform="translate(-150,-150) scale(1,1)"><path fill="none" stroke="#000000" d="M 282 320 L 268 313" stroke-miterlimit="10"/></g><g transform="translate(-150,-150) scale(1,1)"><path fill="none" stroke="#000000" d="M 282 320 L 268 327" stroke-miterlimit="10"/></g><g transform="translate(-150,-150) scale(1,1)"><path fill="#FFFFFF" stroke="none" d="M 283 320 C 283 316.1340064 286.1340064 313 290 313 C 293.8659936 313 297 316.1340064 297 320 C 297 323.8659936 293.8659936 327 290 327 C 286.1340064 327 283 323.8659936 283 320 Z"/></g><g transform="translate(-150,-150) scale(1,1)"><path fill="none" stroke="#000000" d="M 283 320 C 283 316.1340064 286.1340064 313 290 313 C 293.8659936 313 297 316.1340064 297 320 C 297 323.8659936 293.8659936 327 290 327 C 286.1340064 327 283 323.8659936 283 320 Z" stroke-miterlimit="10"/></g><g transform="translate(-150,-150) scale(1,1)"><path fill="none" stroke="#000000" d="M 368 327 L 368 313" stroke-miterlimit="10"/></g><g transform="translate(-150,-150) scale(1,1)"><path fill="none" stroke="#000000" d="M 361 327 L 361 313" stroke-miterlimit="10"/></g><g transform="translate(-150,-150) scale(1,1)"><g><path fill="none" stroke="none"/><text fill="#000000" stroke="none" font-family="Arial" font-size="13px" font-style="normal" font-weight="normal" text-decoration="none" x="348.5" y="334"/></g></g><g transform="translate(-150,-150) scale(1,1)"><g><path fill="none" stroke="none"/><text fill="#000000" stroke="none" font-family="Arial" font-size="13px" font-style="normal" font-weight="normal" text-decoration="none" x="292.5" y="334"/></g></g></g></svg>