<svg xmlns="http://www.w3.org/2000/svg" xmlns:xlink="http://www.w3.org/1999/xlink" version="1.1" width="404" height="180"><defs/><g><g transform="translate(-350,-198) scale(1,1)"><rect fill="#ffffff" stroke="none" x="360" y="208" width="384" height="160"/></g><g transform="translate(-350,-198) scale(1,1)"><path fill="none" stroke="#000000" d="M 360 208 L 744 208 L 744 368 L 360 368 L 360 208 Z Z" stroke-miterlimit="10"/></g><g transform="translate(-350,-198) scale(1,1)"><path fill="#C0C0C0" stroke="none" d="M 407 294.5 C 407 289.2532944 411.2532944 285 416.5 285 C 421.7467056 285 426 289.2532944 426 294.5 C 426 299.7467056 421.7467056 304 416.5 304 C 411.2532944 304 407 299.7467056 407 294.5 Z" opacity="0.2"/></g><g transform="translate(-350,-198) scale(1,1)"><path fill="#000000" stroke="none" d="M 400 287.5 C 400 282.2532944 404.2532944 278 409.5 278 C 414.7467056 278 419 282.2532944 419 287.5 C 419 292.7467056 414.7467056 297 409.5 297 C 404.2532944 297 400 292.7467056 400 287.5 Z"/></g><g transform="translate(-350,-198) scale(1,1)"><path fill="#C0C0C0" stroke="none" d="M 504 274 L 560.90087890625 274 Q 570.90087890625 274 570.90087890625 284 L 570.90087890625 304 Q 570.90087890625 314 560.90087890625 314 L 504 314 Q 494 314 494 304 L 494 284 Q 494 274 504 274 Z" opacity="0.2"/></g><g transform="translate(-350,-198) scale(1,1)"><path fill="#d8f2ff" stroke="none" d="M 497 267 L 553.90087890625 267 Q 563.90087890625 267 563.90087890625 277 L 563.90087890625 297 Q 563.90087890625 307 553.90087890625 307 L 497 307 Q 487 307 487 297 L 487 277 Q 487 267 497 267 Z"/></g><g transform="translate(-350,-198) scale(1,1)"><path fill="none" stroke="#000000" d="M 497 267 L 553.90087890625 267 Q 563.90087890625 267 563.90087890625 277 L 563.90087890625 297 Q 563.90087890625 307 553.90087890625 307 L 497 307 Q 487 307 487 297 L 487 277 Q 487 267 497 267 Z" stroke-miterlimit="10"/></g><g transform="translate(-350,-198) scale(1,1)"><g><path fill="none" stroke="none"/><text fill="#000000" stroke="none" font-family="Arial" font-size="13px" font-style="normal" font-weight="bold" text-decoration="none" x="507.391357421875" y="285">Home</text></g></g><g transform="translate(-350,-198) scale(1,1)"><path fill="#C0C0C0" stroke="none" d="M 648 274 L 704.90087890625 274 Q 714.90087890625 274 714.90087890625 284 L 714.90087890625 304 Q 714.90087890625 314 704.90087890625 314 L 648 314 Q 638 314 638 304 L 638 284 Q 638 274 648 274 Z" opacity="0.2"/></g><g transform="translate(-350,-198) scale(1,1)"><path fill="#a3e0ff" stroke="none" d="M 641 267 L 697.90087890625 267 Q 707.90087890625 267 707.90087890625 277 L 707.90087890625 297 Q 707.90087890625 307 697.90087890625 307 L 641 307 Q 631 307 631 297 L 631 277 Q 631 267 641 267 Z"/></g><g transform="translate(-350,-198) scale(1,1)"><path fill="none" stroke="#000000" d="M 641 267 L 697.90087890625 267 Q 707.90087890625 267 707.90087890625 277 L 707.90087890625 297 Q 707.90087890625 307 697.90087890625 307 L 641 307 Q 631 307 631 297 L 631 277 Q 631 267 641 267 Z" stroke-miterlimit="10"/></g><g transform="translate(-350,-198) scale(1,1)"><g><path fill="none" stroke="none"/><text fill="#000000" stroke="none" font-family="Arial" font-size="13px" font-style="normal" font-weight="bold" text-decoration="none" x="635.5" y="285">Dashboard</text></g></g><g transform="translate(-350,-198) scale(1,1)"><path fill="none" stroke="#000000" d="M 420 287 L 486 287" stroke-miterlimit="10"/></g><g transform="translate(-350,-198) scale(1,1)"><path fill="none" stroke="#000000" d="M 475.83732514237585 291.209517756016 L 486 287 L 475.83732514237585 282.790482243984" stroke-miterlimit="10"/></g><g transform="translate(-350,-198) scale(1,1)"><path fill="none" stroke="#000000" d="M 528 307 L 528 336 L 672 336 L 672 307" stroke-miterlimit="10"/></g><g transform="translate(-350,-198) scale(1,1)"><path fill="none" stroke="#000000" d="M 676.209517756016 317.16267485762415 L 672 307 L 667.790482243984 317.16267485762415" stroke-miterlimit="10"/></g><g transform="translate(-350,-198) scale(1,1)"><path fill="none" stroke="#000000" d="M 672 267 L 672 240 L 528 240 L 528 267" stroke-miterlimit="10"/></g><g transform="translate(-350,-198) scale(1,1)"><path fill="none" stroke="#000000" d="M 523.790482243984 256.83732514237585 L 528 267 L 532.209517756016 256.83732514237585" stroke-miterlimit="10"/></g></g></svg>